<svg id="Layer_1" data-name="Layer 1" xmlns="http://www.w3.org/2000/svg" viewBox="0 0 50 50"><rect x="6.27" y="23.45" width="37.29" height="2.57" transform="translate(-10.19 24.87) rotate(-45)"/><path d="M39.06,12.46,12.91,39.1l-.26.27-.28-.27-1.83-1.81L10.26,37l.28-.29c2.15-2.24,4.32-4.48,6.51-6.68s4.4-4.39,6.6-6.58L30.33,17c2.25-2.15,4.48-4.31,6.76-6.42l.11-.1.1.1Zm-.1,0-1.87-1.72h.2C35.19,13,33,15.26,30.88,17.51l-6.51,6.67c-2.2,2.2-4.37,4.43-6.59,6.61s-4.43,4.35-6.67,6.5v-.56l1.8,1.83h-.54Z"/><rect x="23.62" y="5.98" width="2.57" height="37.29" transform="translate(-10.12 24.82) rotate(-45)"/><path d="M37.18,38.77,10.54,12.62l-.27-.26.27-.28,1.81-1.83.27-.28.29.28c2.24,2.15,4.48,4.31,6.68,6.51s4.38,4.4,6.58,6.6L32.68,30c2.15,2.25,4.31,4.49,6.42,6.77l.1.11-.1.09Zm0-.1L38.9,36.8V37c-2.29-2.11-4.52-4.27-6.77-6.42l-6.67-6.51c-2.2-2.19-4.43-4.36-6.61-6.58s-4.35-4.43-6.5-6.68h.56l-1.83,1.81v-.54Z"/></svg>