<svg id="Layer_1" data-name="Layer 1" xmlns="http://www.w3.org/2000/svg" viewBox="0 0 50 50"><defs><style>.cls-1{fill:#fff;}</style></defs><rect class="cls-1" x="5.66" y="14.72" width="37.29" height="2.57"/><path class="cls-1" d="M43,17.33l-37.33.34H5.29v-.38l0-2.57v-.39h.4q4.66-.11,9.33-.12c3.1,0,6.21,0,9.32,0l9.32.12c3.11.07,6.22.12,9.33.25h.14v.14Zm-.07-.08-.11-2.53.15.14c-3.11.13-6.22.17-9.33.25l-9.32.11c-3.11,0-6.22,0-9.32,0s-6.22-.06-9.33-.12l.4-.4,0,2.57-.38-.38Z"/><rect class="cls-1" x="5.54" y="22.33" width="37.29" height="2.57"/><path class="cls-1" d="M42.86,24.93l-37.32.35H5.16V24.9l0-2.57v-.4h.41c3.1-.07,6.21-.12,9.32-.12s6.21,0,9.32,0l9.33.12c3.1.07,6.21.12,9.32.24H43v.14Zm-.07-.07-.1-2.53.14.14c-3.11.12-6.22.17-9.32.24l-9.33.12c-3.11,0-6.21,0-9.32,0s-6.22-.05-9.32-.11l.4-.4,0,2.57-.38-.38Z"/><rect class="cls-1" x="5.54" y="29.86" width="37.29" height="2.57"/><path class="cls-1" d="M42.86,32.47l-37.32.35H5.16v-.39l0-2.57v-.39h.41c3.1-.06,6.21-.11,9.32-.12s6.21,0,9.32,0l9.33.11c3.1.08,6.21.12,9.32.25H43v.13Zm-.07-.07-.1-2.54.14.14c-3.11.13-6.22.18-9.32.25l-9.33.12c-3.11,0-6.21,0-9.32,0s-6.22-.05-9.32-.12l.4-.4,0,2.57-.38-.38Z"/></svg>